<?xml version="1.0" encoding="utf-8"?>
<!-- Generator: Adobe Illustrator 26.5.0, SVG Export Plug-In . SVG Version: 6.00 Build 0)  -->
<svg version="1.1" id="Слой_1" xmlns="http://www.w3.org/2000/svg" xmlns:xlink="http://www.w3.org/1999/xlink" x="0px" y="0px"
	 viewBox="0 0 23 18" style="enable-background:new 0 0 23 18;" xml:space="preserve">
<style type="text/css">
	.st0{fill:#FFBE26;}
</style>
<g>
	<path class="st0" d="M22.5,0.5c-0.6-0.7-1.3-0.6-2.1,0c-0.6,0.5-1.2,1.1-1.9,1.6C18,2.5,17.5,3,17,3.5c-1.4,1.2-5.8,4.9-7.5,6.3
		C9.2,10,8.8,10,8.5,9.9C6.4,9.1,3,7.7,2.8,7.6C1.8,7.2,1,7.4,0.4,8.2c-0.6,0.8-0.6,1.5,0.2,2.4c0.3,0.3,6,6.4,6.8,6.9
		c0.2,0.1,1,0.6,2,0.4c1.5-0.2,2.4-1.9,2.9-2.3c1.3-1.7,8.3-10.6,10.1-13C23.1,1.7,23.2,1.2,22.5,0.5z"/>
</g>
</svg>
